<svg xmlns="http://www.w3.org/2000/svg" xmlns:xlink="http://www.w3.org/1999/xlink" xmlns:lucid="lucid" width="1265" height="1060"><g transform="translate(-37 1620)" lucid:page-tab-id="0_0"><path d="M0-1696h1360V64H0z" fill="#fff"/><path d="M57-1589c0-6.08 4.92-11 11-11h99c6.08 0 11 4.92 11 11v37c0 6.08-4.92 11-11 11H68c-6.08 0-11-4.92-11-11z" stroke="#83bbe5" stroke-width="4" fill-opacity="0"/><use xlink:href="#a" transform="matrix(1,0,0,1,62,-1595) translate(6.259259259259252 18.1)"/><use xlink:href="#b" transform="matrix(1,0,0,1,62,-1595) translate(40.25925925925926 18.1)"/><use xlink:href="#c" transform="matrix(1,0,0,1,62,-1595) translate(66.5925925925926 18.1)"/><use xlink:href="#d" transform="matrix(1,0,0,1,62,-1595) translate(39.49739583333333 38.897395833333334)"/><path d="M119-1509c0-6.08 4.92-11 11-11h99c6.08 0 11 4.92 11 11v37c0 6.08-4.92 11-11 11h-99c-6.08 0-11-4.92-11-11z" stroke="#83bbe5" stroke-width="4" fill-opacity="0"/><use xlink:href="#a" transform="matrix(1,0,0,1,124,-1515) translate(6.259259259259252 18.1)"/><use xlink:href="#b" transform="matrix(1,0,0,1,124,-1515) translate(40.25925925925926 18.1)"/><use xlink:href="#c" transform="matrix(1,0,0,1,124,-1515) translate(66.5925925925926 18.1)"/><use xlink:href="#e" transform="matrix(1,0,0,1,124,-1515) translate(39.49739583333333 38.897395833333334)"/><path d="M240-1348c0-6.08 4.92-11 11-11h99c6.08 0 11 4.92 11 11v37c0 6.08-4.92 11-11 11h-99c-6.08 0-11-4.92-11-11z" stroke="#83bbe5" stroke-width="4" fill-opacity="0"/><use xlink:href="#a" transform="matrix(1,0,0,1,245,-1354) translate(6.259259259259252 18.1)"/><use xlink:href="#b" transform="matrix(1,0,0,1,245,-1354) translate(40.25925925925926 18.1)"/><use xlink:href="#c" transform="matrix(1,0,0,1,245,-1354) translate(66.5925925925926 18.1)"/><use xlink:href="#f" transform="matrix(1,0,0,1,245,-1354) translate(31.496093749999996 38.897395833333334)"/><path d="M300-1268c0-6.08 4.92-11 11-11h99c6.08 0 11 4.92 11 11v37c0 6.08-4.92 11-11 11h-99c-6.08 0-11-4.92-11-11z" stroke="#83bbe5" stroke-width="4" fill-opacity="0"/><use xlink:href="#g" transform="matrix(1,0,0,1,305,-1274) translate(3.518518518518519 16.366666666666667)"/><use xlink:href="#h" transform="matrix(1,0,0,1,305,-1274) translate(69.33333333333333 16.366666666666667)"/><use xlink:href="#i" transform="matrix(1,0,0,1,305,-1274) translate(49.4990234375 39.29609375)"/><path d="M240-1188c0-6.08 4.92-11 11-11h99c6.08 0 11 4.92 11 11v37c0 6.08-4.92 11-11 11h-99c-6.08 0-11-4.92-11-11z" stroke="#83bbe5" stroke-width="4" fill-opacity="0"/><use xlink:href="#j" transform="matrix(1,0,0,1,245,-1194) translate(8.851851851851848 18.1)"/><use xlink:href="#b" transform="matrix(1,0,0,1,245,-1194) translate(37.666666666666664 18.1)"/><use xlink:href="#c" transform="matrix(1,0,0,1,245,-1194) translate(64 18.1)"/><use xlink:href="#f" transform="matrix(1,0,0,1,245,-1194) translate(31.496093749999996 38.897395833333334)"/><path d="M240-1108c0-6.08 4.92-11 11-11h99c6.08 0 11 4.92 11 11v37c0 6.08-4.92 11-11 11h-99c-6.08 0-11-4.92-11-11z" stroke="#83bbe5" stroke-width="4" fill-opacity="0"/><use xlink:href="#g" transform="matrix(1,0,0,1,245,-1114) translate(3.518518518518519 16.677777777777777)"/><use xlink:href="#h" transform="matrix(1,0,0,1,245,-1114) translate(69.33333333333333 16.677777777777777)"/><use xlink:href="#k" transform="matrix(1,0,0,1,245,-1114) translate(50.165798611111114 39.42986111111111)"/><path d="M240-1028c0-6.08 4.92-11 11-11h99c6.08 0 11 4.92 11 11v37c0 6.08-4.92 11-11 11h-99c-6.08 0-11-4.92-11-11z" stroke="#83bbe5" stroke-width="4" fill-opacity="0"/><use xlink:href="#a" transform="matrix(1,0,0,1,245,-1034) translate(6.259259259259252 18.1)"/><use xlink:href="#b" transform="matrix(1,0,0,1,245,-1034) translate(40.25925925925926 18.1)"/><use xlink:href="#c" transform="matrix(1,0,0,1,245,-1034) translate(66.5925925925926 18.1)"/><use xlink:href="#f" transform="matrix(1,0,0,1,245,-1034) translate(31.496093749999996 38.897395833333334)"/><path d="M300-948c0-6.08 4.92-11 11-11h99c6.08 0 11 4.92 11 11v37c0 6.08-4.92 11-11 11h-99c-6.08 0-11-4.92-11-11z" stroke="#83bbe5" stroke-width="4" fill-opacity="0"/><use xlink:href="#g" transform="matrix(1,0,0,1,305,-954) translate(3.518518518518519 16.544444444444448)"/><use xlink:href="#h" transform="matrix(1,0,0,1,305,-954) translate(69.33333333333333 16.544444444444448)"/><use xlink:href="#l" transform="matrix(1,0,0,1,305,-954) translate(48.16547309027778 38.22855902777778)"/><path d="M240-868c0-6.08 4.92-11 11-11h99c6.08 0 11 4.92 11 11v37c0 6.08-4.92 11-11 11h-99c-6.08 0-11-4.92-11-11z" stroke="#83bbe5" stroke-width="4" fill-opacity="0"/><use xlink:href="#j" transform="matrix(1,0,0,1,245,-874) translate(8.851851851851848 18.1)"/><use xlink:href="#b" transform="matrix(1,0,0,1,245,-874) translate(37.666666666666664 18.1)"/><use xlink:href="#c" transform="matrix(1,0,0,1,245,-874) translate(64 18.1)"/><use xlink:href="#f" transform="matrix(1,0,0,1,245,-874) translate(31.496093749999996 38.897395833333334)"/><path d="M180-788c0-6.08 4.92-11 11-11h99c6.08 0 11 4.92 11 11v37c0 6.08-4.92 11-11 11h-99c-6.08 0-11-4.92-11-11z" stroke="#83bbe5" stroke-width="4" fill-opacity="0"/><use xlink:href="#j" transform="matrix(1,0,0,1,185,-794) translate(8.851851851851848 18.1)"/><use xlink:href="#b" transform="matrix(1,0,0,1,185,-794) translate(37.666666666666664 18.1)"/><use xlink:href="#c" transform="matrix(1,0,0,1,185,-794) translate(64 18.1)"/><use xlink:href="#m" transform="matrix(1,0,0,1,185,-794) translate(43.498046875 38.897395833333334)"/><path d="M120-708c0-6.08 4.92-11 11-11h99c6.08 0 11 4.92 11 11v37c0 6.08-4.92 11-11 11h-99c-6.08 0-11-4.92-11-11z" stroke="#83bbe5" stroke-width="4" fill-opacity="0"/><use xlink:href="#j" transform="matrix(1,0,0,1,125,-714) translate(8.851851851851848 18.1)"/><use xlink:href="#b" transform="matrix(1,0,0,1,125,-714) translate(37.666666666666664 18.1)"/><use xlink:href="#c" transform="matrix(1,0,0,1,125,-714) translate(64 18.1)"/><use xlink:href="#e" transform="matrix(1,0,0,1,125,-714) translate(39.49739583333333 38.897395833333334)"/><path d="M60-628c0-6.08 4.92-11 11-11h99c6.08 0 11 4.92 11 11v37c0 6.08-4.92 11-11 11H71c-6.08 0-11-4.92-11-11z" stroke="#83bbe5" stroke-width="4" fill-opacity="0"/><use xlink:href="#j" transform="matrix(1,0,0,1,65,-634) translate(8.851851851851848 18.1)"/><use xlink:href="#b" transform="matrix(1,0,0,1,65,-634) translate(37.666666666666664 18.1)"/><use xlink:href="#c" transform="matrix(1,0,0,1,65,-634) translate(64 18.1)"/><use xlink:href="#d" transform="matrix(1,0,0,1,65,-634) translate(39.49739583333333 38.897395833333334)"/><path d="M179-1429c0-6.08 4.92-11 11-11h99c6.08 0 11 4.92 11 11v37c0 6.08-4.92 11-11 11h-99c-6.08 0-11-4.92-11-11z" stroke="#83bbe5" stroke-width="4" fill-opacity="0"/><use xlink:href="#a" transform="matrix(1,0,0,1,184,-1435) translate(6.259259259259252 18.1)"/><use xlink:href="#b" transform="matrix(1,0,0,1,184,-1435) translate(40.25925925925926 18.1)"/><use xlink:href="#c" transform="matrix(1,0,0,1,184,-1435) translate(66.5925925925926 18.1)"/><use xlink:href="#m" transform="matrix(1,0,0,1,184,-1435) translate(43.498046875 38.897395833333334)"/><path d="M802.08-1423c0-6.63 5.37-12 12-12h184c6.63 0 12 5.37 12 12v27.2c0 6.63-5.37 12-12 12h-184c-6.63 0-12-5.37-12-12z" stroke="#ba2b65" stroke-width="2" fill="#fff"/><use xlink:href="#n" transform="matrix(1,0,0,1,807.0799999999999,-1430) translate(14.777777777777786 25)"/><path d="M802.08-1311c0-6.63 5.37-12 12-12h184c6.63 0 12 5.37 12 12v27.2c0 6.63-5.37 12-12 12h-184c-6.63 0-12-5.37-12-12z" stroke="#00624f" stroke-width="2" fill="#fff"/><use xlink:href="#o" transform="matrix(1,0,0,1,807.0799999999999,-1318) translate(12.472222222222229 25)"/><path d="M802.08-1200c0-6.63 5.37-12 12-12h184c6.63 0 12 5.37 12 12v27.2c0 6.63-5.37 12-12 12h-184c-6.63 0-12-5.37-12-12z" stroke="#834187" stroke-width="2" fill="#fff"/><use xlink:href="#p" transform="matrix(1,0,0,1,807.0799999999999,-1207) translate(20.86111111111113 25)"/><path d="M529-1057c0-6.63 5.37-12 12-12h184c6.63 0 12 5.37 12 12v27.2c0 6.63-5.37 12-12 12H541c-6.63 0-12-5.37-12-12z" stroke="#0c7cba" stroke-width="2" fill="#fff"/><use xlink:href="#q" transform="matrix(1,0,0,1,534,-1064) translate(6.361111111111114 25)"/><path d="M1074-1056.6c0-6.63 5.37-12 12-12h184c6.63 0 12 5.37 12 12v27.2c0 6.63-5.37 12-12 12h-184c-6.63 0-12-5.37-12-12z" stroke="#0c7cba" stroke-width="2" fill="#fff"/><use xlink:href="#r" transform="matrix(1,0,0,1,1079,-1063.6) translate(6.361111111111114 25)"/><path d="M802.08-1057c0-6.63 5.37-12 12-12h184c6.63 0 12 5.37 12 12v27.2c0 6.63-5.37 12-12 12h-184c-6.63 0-12-5.37-12-12z" stroke="#ce6925" stroke-width="2" fill="#fff"/><use xlink:href="#s" transform="matrix(1,0,0,1,807.0799999999999,-1064) translate(80.69444444444444 25)"/><path d="M529-948c0-6.63 5.37-12 12-12h184c6.63 0 12 5.37 12 12v27.2c0 6.63-5.37 12-12 12H541c-6.63 0-12-5.37-12-12z" stroke="#ce6925" stroke-width="2" fill="#fff"/><use xlink:href="#s" transform="matrix(1,0,0,1,534,-955.0000000000001) translate(80.69444444444444 25)"/><path d="M1074-947.6c0-6.63 5.37-12 12-12h184c6.63 0 12 5.37 12 12v27.2c0 6.63-5.37 12-12 12h-184c-6.63 0-12-5.37-12-12z" stroke="#ce6925" stroke-width="2" fill="#fff"/><use xlink:href="#s" transform="matrix(1,0,0,1,1079,-954.6) translate(80.69444444444444 25)"/><path d="M906.08-1382.3v41.92" stroke="#000" fill="none"/><path d="M906.58-1382.3h-1v-.5h1z"/><path d="M906.08-1325.62l-4.64-14.26h9.28z" stroke="#000"/><path d="M906.08-1270.3v40.92" stroke="#000" fill="none"/><path d="M906.58-1270.3h-1v-.5h1z"/><path d="M906.08-1214.62l-4.64-14.26h9.28z" stroke="#000"/><path d="M906.08-1159.3v72.92" stroke="#000" fill="none"/><path d="M906.58-1159.3h-1v-.5h1z"/><path d="M906.08-1071.62l-4.64-14.26h9.28z" stroke="#000"/><path d="M906.08-1159.3v44.4H633v28.52" stroke="#000" fill="none"/><path d="M906.58-1159.3h-1v-.5h1z"/><path d="M633-1071.62l-4.64-14.26h9.28z" stroke="#000"/><path d="M906.08-1159.3v44.6H1178v28.72" stroke="#000" fill="none"/><path d="M906.58-1159.3h-1v-.5h1z"/><path d="M1178-1071.22l-4.64-14.26h9.28z" stroke="#000"/><path d="M633-1016.3v38.92" stroke="#000" fill="none"/><path d="M633.5-1016.3h-1v-.5h1z"/><path d="M633-962.62l-4.64-14.26h9.28z" stroke="#000"/><path d="M1178-1015.9v38.92" stroke="#000" fill="none"/><path d="M1178.5-1015.9h-1v-.5h1z"/><path d="M1178-962.22l-4.64-14.26h9.28z" stroke="#000"/><path d="M180.5-1570.5l77.95-1.8 368.9-20.13 44.03.86 32.17 2 25.07 2.6 20.28 3 16.86 3.2 14.3 3.34 12.3 3.43 10.72 3.48 9.46 3.5 8.4 3.55 7.55 3.54 6.8 3.56 6.18 3.57 5.65 3.58 5.2 3.6 4.77 3.63 4.43 3.68 4.1 3.7 3.84 3.75 3.6 3.8 3.34 3.9 3.15 3.96 2.95 4.06 2.78 4.17 2.6 4.3 2.45 4.45 2.3 4.6 2.13 4.82 1.98 5.02 1.84 5.27 1.67 5.54 1.5 5.87 1.33 6.25 1.13 6.66.75 5.86" fill="none"/><path d="M180.5-1570.5l4.98-.12m4.98-.12l9.95-.23m4.98-.1l9.95-.24m4.97-.12l9.95-.23m4.98-.1l9.95-.24m4.97-.1l8.3-.2 1.65-.08m4.97-.27l9.93-.54m4.97-.26l9.94-.55m4.97-.28l9.94-.54m4.98-.27l9.94-.53m4.96-.28l9.94-.55m4.97-.27l9.93-.54m4.96-.27l9.93-.55m4.97-.27l9.94-.54m4.96-.26l9.94-.54m4.97-.27l9.94-.55m4.97-.27l9.95-.53m4.97-.27l9.93-.55m4.97-.27l9.94-.54m4.97-.27l9.93-.54m4.97-.27l9.94-.55m4.97-.26l9.93-.54m4.97-.27l9.94-.54m4.97-.3l9.93-.53m4.97-.27l9.94-.54m4.96-.27l9.93-.56m4.96-.27l9.94-.54m4.97-.27l9.93-.54m4.97-.28l9.94-.54m4.98-.27l9.93-.54m4.98-.28l4.58-.25 5.36.1m4.98.1l9.95.2m4.97.1l9.95.2m4.98.1l3.83.06 6.1.38m4.97.32l9.93.6m4.97.32l6.2.4 3.72.37m4.95.53l9.9 1.03m4.94.52l1.56.16 8.3 1.22m4.92.72l7.06 1.04 2.77.53m4.88.93l9.2 1.75.58.13m4.84 1.13l8.88 2.07.8.23m4.8 1.33l6.7 1.87 2.84.92m4.73 1.54l3.15 1.02 6.22 2.3m4.64 1.8l7 2.95 2.14 1m4.5 2.12l.9.42 6.8 3.56 1.1.63m4.32 2.5l.78.44 5.65 3.58 1.94 1.35m4.06 2.87l3.97 3 3.83 3.18m3.72 3.3l1 .9 3.82 3.75 2.23 2.37m3.3 3.7l1.4 1.63 3.15 3.96 1.62 2.22m2.83 4.1l1.28 1.9 2.6 4.3 1.27 2.3m2.3 4.42l1.17 2.35 2.14 4.8.76 1.92m1.76 4.65l1.3 3.72 1.67 5.54.06.2m1.24 4.83l.22.84 1.32 6.25.45 2.66m.8 4.92l.62 4.94" stroke="#000" fill="none"/><path d="M180.53-1570H180v-1h.5z"/><path d="M905.97-1437.6l-5.6-13.92 9.23-.65z" stroke="#000"/><path d="M242.5-1490.5l78.56-1.92 190.56-7.16 43.1.84 31.1 1.93 24.42 2.54 20.07 2.95 16.98 3.22 14.64 3.42 12.82 3.57 11.37 3.7 10.2 3.8 9.2 3.86 8.4 3.94 7.68 4.02 7.1 4.1 6.56 4.16 6.13 4.26 5.72 4.34 5.36 4.45 5.07 4.55 4.78 4.7 4.54 4.8 4.3 5 4.1 5.15 3.88 5.35 3.7 5.6 3.54 5.82 3.37 6.13 3.2 6.44 3.03 6.82 2.87 7.23 2.68 7.72 2.5 8.26 2.3 8.92 1.74 8.25" fill="none"/><path d="M242.5-1490.5l4.96-.13m4.96-.12l9.9-.24m4.97-.12l9.9-.24m4.96-.12l9.92-.24m4.95-.12l9.92-.24m4.95-.12l9.16-.22.76-.03m4.95-.2l9.9-.36m4.97-.2l9.9-.37m4.96-.2l9.9-.36m4.97-.18l9.9-.4m4.96-.17l9.9-.37m4.97-.2l9.9-.36m4.96-.2l9.9-.36m4.96-.2l9.9-.36m4.97-.2l9.9-.36m4.95-.18l9.9-.38m4.97-.18l9.9-.38m4.96-.18l9.9-.37m4.97-.2l6.47-.23 3.44.06m4.96.1l9.9.2m4.97.1l9.9.2m4.96.08l4.95.1 4.97.3m4.95.3l9.9.63m4.94.3l6.35.4 3.55.36m4.93.5l9.86 1.04m4.93.5l1.17.14 8.65 1.27m4.9.73l6.5.96 3.3.6m4.86.94l8.82 1.68.9.2m4.84 1.14l8.9 2.08.75.2m4.77 1.34l7.3 2.03 2.23.74m4.7 1.53l4.44 1.43 4.94 1.84m4.65 1.73l.6.22 8.54 3.58m4.5 2.08l4.55 2.14 4.33 2.27m4.37 2.34l6.07 3.5 2.45 1.57m4.2 2.66l6.05 4.2 2.02 1.54m3.93 3l5.13 4.26 2.42 2.17m3.65 3.36l3.78 3.7 3.18 3.38m3.3 3.7l2.36 2.73 3.9 4.94m2.94 4l1.14 1.58 3.7 5.6.67 1.08m2.55 4.24l.3.5 3.38 6.13 1.04 2.1m2.2 4.43l3 6.73.93 2.37m1.82 4.6l.1.26 2.7 7.72.42 1.4m1.43 4.75l.64 2.1 1.92 7.48m1.1 4.84l1.02 4.85" stroke="#000" fill="none"/><path d="M242.53-1490H242v-1h.5z"/><path d="M810.44-1325.16l-6.9-13.33 9.16-1.5z" stroke="#000"/><path d="M302.5-1410.5l75.16 1.43 49.07 3.04 37.6 3.92 31.03 4.55 26.7 5.08 23.64 5.54 21.4 5.97 19.72 6.4 18.4 6.84 17.4 7.3 16.58 7.8 15.98 8.37 15.53 8.97 15.22 9.65 15 10.43 14.93 11.33 14.95 12.37 15.07 13.58 15.33 15 15.7 16.73 16.2 18.8 3.27 4.1" fill="none"/><path d="M302.5-1410.5l4.96.1m4.95.1l9.92.18m4.95.1l9.9.2m4.96.08l9.9.2m4.96.08l9.9.2m4.94.08l5.82.1 4.08.26m4.95.3l9.88.62m4.94.3l9.9.62m4.93.3l9.9.62m4.92.5l9.85 1.02m4.93.5l9.85 1.04m4.93.5l3.6.4 6.22.9m4.9.72l9.8 1.45m4.9.72l5.2.75 4.57.87m4.87.93l9.72 1.85m4.87.93l2.65.5 7 1.64m4.83 1.13l9.65 2.26m4.8 1.24l9.54 2.66m4.77 1.34l4.47 1.24 5.02 1.63m4.7 1.53l9.43 3.06m4.65 1.7l9.3 3.45m4.63 1.74l.4.14 8.74 3.68m4.57 1.92l4.07 1.7 4.98 2.35m4.48 2.1l7.14 3.36 1.8.93m4.38 2.3l8.78 4.58m4.3 2.45l8.6 4.95m4.26 2.5l8.37 5.3m4.17 2.67l2.05 1.3 6.14 4.27m4.07 2.82l4.8 3.34 3.24 2.46m3.94 3l7.75 5.87.15.12m3.8 3.16l7.65 6.32m3.8 3.18l7.36 6.63m3.7 3.32l3.57 3.23 3.63 3.55m3.54 3.47l7.08 6.93m3.43 3.57l6.78 7.22m3.4 3.62l3.16 3.37 3.44 4m3.23 3.76l6.48 7.5m3.22 3.76l3.1 3.87" stroke="#000" fill="none"/><path d="M302.53-1411l-.02 1h-.5v-1z"/><path d="M805.58-1211.78l-12.52-8.25 7.24-5.78z" stroke="#000"/><path d="M363.5-1329.5l116.6-2.83 329.04-12.93 69.27 1.36 49.7 3.08 38.7 4.03 31.43 4.63 26.27 5 22.4 5.24 19.42 5.42 17.03 5.5 15.1 5.62 13.5 5.67 12.2 5.72 11.04 5.78 10.08 5.82 9.27 5.87 8.54 5.93 7.9 6 7.37 6.1 6.86 6.18 6.43 6.3 6.03 6.4 5.65 6.58 5.34 6.73 5.02 6.93 4.74 7.14 4.48 7.4 4.22 7.67 3.96 8 3.72 8.34 3.47 8.77 3.23 9.23 2.94 9.78 2.67 10.38 2.35 11.1 2 11.88 1.62 12.83 1.16 13.92.3 6.95" fill="none"/><path d="M363.5-1329.5l5.04-.13m5.04-.13l10.06-.24m5.03-.12l10.07-.24m5.03-.13l10.07-.23m5.03-.12l10.07-.24m5.03-.12l10.06-.24m5.04-.12l10.06-.25m5.03-.12l10.07-.24m5.03-.1l.84-.03 9.22-.37m5.03-.2l10.06-.4m5.04-.2l10.06-.38m5.03-.2l10.06-.4m5.02-.2l10.06-.4m5.03-.18l10.08-.4m5.03-.2l10.07-.4m5.03-.2l10.06-.38m5.03-.2l10.05-.4m5.03-.2l10.06-.4m5.03-.2l10.06-.38m5.03-.2l10.06-.4m5.03-.2l10.06-.4m5.04-.18l10.06-.4m5.03-.2l10.06-.4m5.02-.2l10.06-.4m5.03-.18l10.07-.4m5.03-.2l10.06-.4m5.03-.2l10.05-.38m5.03-.2l10.06-.4m5.03-.2l10.06-.4m5.04-.2l10.06-.38m5.03-.07l10.06.18m5.04.1l10.06.2m5.04.1l10.06.2m5.04.1l10.06.2m5.03.1l6.76.12 3.32.2m5.02.32l10.05.62m5 .3l10.06.63m5.03.3l10.04.64m5 .48l10.02 1.04m5 .52l10.02 1.05m5 .5l4.82.5 5.17.77m4.98.74l9.97 1.47m4.98.73l6.33.93 3.6.7m4.95.93l9.9 1.88m4.93.94l2.9.55 6.94 1.62m4.9 1.15l9.8 2.3m4.87 1.32l9.7 2.7m4.85 1.35l.77.22 8.82 2.85m4.8 1.55l3.4 1.1 6.08 2.26m4.7 1.76l4.33 1.6 5.04 2.12m4.63 1.94l3.83 1.6 5.35 2.53m4.57 2.15l2.27 1.07 6.7 3.5m4.46 2.34l8.72 5.03m4.28 2.63l6.25 3.96 2.2 1.52m4.12 2.87l2.22 1.53 5.86 4.45m3.95 3.13l5.47 4.52 2.2 2m3.76 3.37l.9.8 6.32 6.2m3.46 3.66l2.7 2.85 4 4.67m3.2 3.88l3.8 4.76 2.34 3.24m2.94 4.08l4.48 6.75 1.02 1.68m2.6 4.3l.86 1.4 4.06 7.4m2.25 4.5l1.87 3.78 2.38 5.34m1.98 4.63l2.83 7.15.8 2.25m1.65 4.75l.78 2.23 2.22 7.38m1.35 4.85l2.04 7.94.4 1.84m1.03 4.92l.92 4.33.93 5.57m.84 4.96l.23 1.36 1.1 8.62m.58 5l.84 10.03m.34 5.02l.2 5.02" stroke="#000" fill="none"/><path d="M363.54-1329H363v-1h.5z"/><path d="M1254.96-1071.22l-5-14.14 9.26-.24z" stroke="#000"/><path d="M423.5-1249.5l383.05-1.9 64.97 4 48.2 5.04 38.14 5.6 31.32 5.96 26.35 6.16 22.6 6.3 19.63 6.37 17.26 6.4 15.34 6.45 13.72 6.46 12.4 6.47 11.23 6.5 10.26 6.5 9.42 6.54 8.67 6.58 8.02 6.63 7.45 6.7 6.93 6.8 6.47 6.88 6.06 7.02 5.67 7.16 5.32 7.33 5 7.52 4.7 7.75 4.4 8 4.1 8.28 3.84 8.62 3.57 9 3.28 9.43 3 9.9 2.68 10.5 2.36 11.1 2 11.84 1.6 12.7 1.14 13.65.26 6.3" fill="none"/><path d="M423.5-1249.5l5-.03m5-.02l10-.05m5-.03l10-.05m5-.02l10-.05m5-.02l10-.05m5-.03l10-.05m5-.02l10-.05m5-.03l10-.05m4.98-.02l10-.05m5-.02l10-.05m5-.02l10-.05m5-.02l10-.04m5-.03l10-.05m5-.02l9.98-.05m5 0l10-.06m5-.03l10-.04m5-.02l10-.05m5-.04l10-.05m5 0l10-.06m5-.03l9.98-.03m5-.03l10-.05m5-.03l10-.05m5-.03l10-.06m5-.02l10-.05m5-.03l10-.04m5-.03l9.98-.05m5 .1l9.98.62m5 .3l9.97.62m5 .3l9.96.62m5 .3l9.97.63m5 .32l3.22.2 6.73.7m4.97.5l9.94 1.05m4.98.52l9.94 1.02m4.97.52l6.67.7 3.26.48m4.94.72l9.9 1.46m4.94.72l9.9 1.46m4.94.72l.26.04 9.56 1.82m4.9.93l9.84 1.86m4.9.93l2.12.4 7.64 1.78m4.87 1.14l9.72 2.28m4.86 1.17l9.63 2.68m4.83 1.35l7.4 2.06 2.2.7m4.76 1.56l9.5 3.08m4.73 1.6l9.37 3.5m4.7 1.73l1.62.6 7.6 3.2m4.62 1.94l3.12 1.3 5.98 2.83m4.53 2.12l3.2 1.52 5.73 2.98m4.43 2.3l2.24 1.2 6.47 3.72m4.33 2.5l.44.25 8.02 5.07m4.17 2.76l7.48 5.2.7.54m3.98 3.02l4 3.02 3.83 3.18m3.85 3.18l.32.27 7.12 6.4m3.57 3.5l3.68 3.6 3.32 3.53m3.4 3.65l5.8 6.72.7.88m3.1 3.92l1.88 2.36 4.1 5.66m2.85 4.12l3.37 5.07 2.02 3.34m2.58 4.27l.08.13 4.4 8 .32.64m2.22 4.48l1.57 3.16 2.63 5.9m1.95 4.6l2.82 7.12.77 2.22m1.64 4.72l.87 2.5 2.13 7.04m1.36 4.8l2.2 8.54.24 1.16m1.04 4.9l1.07 5.05.8 4.76m.83 4.92l.36 2.15.97 7.75m.62 4.96l.83 9.96m.36 5l.2 4.98" stroke="#000" fill="none"/><path d="M423.53-1249H423v-1h.52z"/><path d="M1244.3-962.22l-5.02-14.13 9.26-.25z" stroke="#000"/><path d="M363.5-1089.5l13.64-.3 16.65-1.06 20.16-2.14 25.58-3.8 35.56-6.84 76.06-18.23 104.15-25.66 28.57-5.5 19.38-2.88 14.6-1.56 11.63-.74 9.57-.2 8.08.15 6.94.44 6.05.62 5.34.8 4.77.9 4.3 1 3.88 1.08 3.56 1.16 3.27 1.2 3.03 1.28 2.8 1.32 2.63 1.38 2.45 1.42 2.32 1.47 2.2 1.52 2.08 1.58 1.98 1.64 1.9 1.7 1.8 1.78 1.73 1.84 1.67 1.92 1.6 2.03 1.55 2.13 1.5 2.24 1.43 2.38 1.4 2.52 1.33 2.7 1.28 2.87 1.24 3.08 1.16 3.35 1.1 3.63 1.02 3.97.92 4.37.82 4.83.68 5.38.03.34" fill="none"/><path d="M363.5-1089.5l5.03-.12m5.02-.1l3.6-.08 6.43-.4m5-.33l5.2-.33 4.82-.5m5-.54l10-1.06m4.96-.72l9.93-1.48m4.96-.74l6.08-.9 3.83-.74m4.93-.95l9.87-1.88m4.93-.95l9.87-1.9m4.9-1.07l9.77-2.34m4.9-1.18l9.75-2.34m4.88-1.17l9.77-2.34m4.88-1.17l9.77-2.34m4.9-1.17l9.76-2.35m4.88-1.17h.02l9.73-2.4m4.87-1.2l9.76-2.4m4.87-1.2l9.76-2.4m4.87-1.2l9.76-2.4m4.86-1.22l9.76-2.4m4.88-1.2l9.75-2.4m4.88-1.2l9.75-2.4m4.88-1.2l1.75-.43 8.1-1.56m4.94-.94l9.86-1.9m4.93-.95l.74-.13 9.2-1.37m4.96-.74l5.22-.77 4.74-.52m5-.53l4.86-.5 5.14-.34m5-.3l1.48-.1 8.57-.2m5.02.07l4.06.08 5.98.38m5 .48l2.02.22 5.34.8 2.58.48m4.9 1.05l1.58.37 3.9 1.08 3.54 1.16.62.23m4.67 1.82l1 .42 2.82 1.32 2.62 1.38 2.45 1.42.04.02m4.18 2.77l.3.2 2.07 1.58 1.98 1.64 1.9 1.7 1.4 1.38m3.4 3.7l.4.47 1.6 2.03 1.55 2.13 1.5 2.24.78 1.3m2.43 4.4l.93 1.9 1.28 2.87 1.24 3.08.47 1.36m1.55 4.8l.25.82 1.02 3.97.92 4.37.1.6m.8 4.96l.6 4.65.03.34" stroke="#000" fill="none"/><path d="M363.53-1089H363v-1h.5z"/><path d="M829.6-1071.62l-5.34-14.02 9.26-.45z" stroke="#000"/><path d="M363.5-1009.5l10.98-.23 9.66-.6 8.38-.88 7.48-1.12 6.9-1.3 6.58-1.55 6.6-1.85 7.15-2.33 9.8-3.66 26.74-10.55 7.16-2.33 6.6-1.85 6.57-1.54 6.9-1.3 7.48-1.12 8.38-.86 4.77-.3" fill="none"/><path d="M363.5-1009.5l5.1-.1m5.1-.12h.78l9.4-.6m5.06-.52l3.58-.37 6.53-.98m5-.9l2.85-.55 6.58-1.54.53-.15m4.92-1.37l1.15-.32 7.16-2.33 1.37-.5m4.78-1.8l3.64-1.36 5.87-2.32m4.73-1.87l9.48-3.73m4.76-1.87l1.9-.75 7.17-2.33.6-.17m4.9-1.37l1.1-.3 6.57-1.55 2.26-.43m5-.94l7.12-1.05 3-.3m5.06-.53l.32-.03 4.77-.3" stroke="#000" fill="none"/><path d="M363.53-1009H363v-1h.5z"/><path d="M526.38-1043.35l-14.1 5.1-.3-9.26z" stroke="#000"/><path d="M423.5-929.5h88.12" fill="none"/><path d="M423.5-929.5h4.9m4.9 0h9.78m4.9 0h9.8m4.88 0h9.8m4.9 0h9.78m4.9 0h9.8m4.88 0h4.9" stroke="#000" fill="none"/><path d="M423.5-929h-.5v-1h.5z"/><path d="M526.38-929.5l-14.26 4.64v-9.28z" stroke="#000"/><defs><path fill="#333" d="M169-182c-1-43-94-46-97-3 18 66 151 10 154 114 3 95-165 93-204 36-6-8-10-19-12-30l50-8c3 46 112 56 116 5-17-69-150-10-154-114-4-87 153-88 188-35 5 8 8 18 10 28" id="t"/><path fill="#333" d="M115-3C79 11 28 4 28-45v-112H4v-33h27l15-45h31v45h36v33H77v99c-1 23 16 31 38 25v30" id="u"/><path fill="#333" d="M133-34C117-15 103 5 69 4 32 3 11-16 11-54c-1-60 55-63 116-61 1-26-3-47-28-47-18 1-26 9-28 27l-52-2c7-38 36-58 82-57s74 22 75 68l1 82c-1 14 12 18 25 15v27c-30 8-71 5-69-32zm-48 3c29 0 43-24 42-57-32 0-66-3-65 30 0 17 8 27 23 27" id="v"/><path fill="#333" d="M135-150c-39-12-60 13-60 57V0H25l-1-190h47c2 13-1 29 3 40 6-28 27-53 61-41v41" id="w"/><g id="a"><use transform="matrix(0.03703703703703704,0,0,0.03703703703703704,0,0)" xlink:href="#t"/><use transform="matrix(0.03703703703703704,0,0,0.03703703703703704,8.88888888888889,0)" xlink:href="#u"/><use transform="matrix(0.03703703703703704,0,0,0.03703703703703704,13.296296296296298,0)" xlink:href="#v"/><use transform="matrix(0.03703703703703704,0,0,0.03703703703703704,20.703703703703706,0)" xlink:href="#w"/><use transform="matrix(0.03703703703703704,0,0,0.03703703703703704,25.888888888888893,0)" xlink:href="#u"/></g><path fill="#333" d="M136-208V0H84v-208H4v-40h212v40h-80" id="x"/><path fill="#333" d="M195-6C206 82 75 100 31 46c-4-6-6-13-8-21l49-6c3 16 16 24 34 25 40 0 42-37 40-79-11 22-30 35-61 35-53 0-70-43-70-97 0-56 18-96 73-97 30 0 46 14 59 34l2-30h47zm-90-29c32 0 41-27 41-63 0-35-9-62-40-62-32 0-39 29-40 63 0 36 9 62 39 62" id="y"/><g id="b"><use transform="matrix(0.03703703703703704,0,0,0.03703703703703704,0,0)" xlink:href="#x"/><use transform="matrix(0.03703703703703704,0,0,0.03703703703703704,7.1111111111111125,0)" xlink:href="#v"/><use transform="matrix(0.03703703703703704,0,0,0.03703703703703704,14.51851851851852,0)" xlink:href="#y"/></g><path fill="#333" d="M110-194c64 0 96 36 96 99 0 64-35 99-97 99-61 0-95-36-95-99 0-62 34-99 96-99zm-1 164c35 0 45-28 45-65 0-40-10-65-43-65-34 0-45 26-45 65 0 36 10 65 43 65" id="z"/><path fill="#333" d="M147 0L96-86 75-71V0H25v-261h50v150l67-79h53l-66 74L201 0h-54" id="A"/><path fill="#333" d="M185-48c-13 30-37 53-82 52C43 2 14-33 14-96s30-98 90-98c62 0 83 45 84 108H66c0 31 8 55 39 56 18 0 30-7 34-22zm-45-69c5-46-57-63-70-21-2 6-4 13-4 21h74" id="B"/><path fill="#333" d="M135-194c87-1 58 113 63 194h-50c-7-57 23-157-34-157-59 0-34 97-39 157H25l-1-190h47c2 12-1 28 3 38 12-26 28-41 61-42" id="C"/><g id="c"><use transform="matrix(0.03703703703703704,0,0,0.03703703703703704,0,0)" xlink:href="#x"/><use transform="matrix(0.03703703703703704,0,0,0.03703703703703704,7.1111111111111125,0)" xlink:href="#z"/><use transform="matrix(0.03703703703703704,0,0,0.03703703703703704,15.222222222222225,0)" xlink:href="#A"/><use transform="matrix(0.03703703703703704,0,0,0.03703703703703704,22.629629629629633,0)" xlink:href="#B"/><use transform="matrix(0.03703703703703704,0,0,0.03703703703703704,30.03703703703704,0)" xlink:href="#C"/></g><path fill="#00624f" d="M840-621c27-126 31-283-121-270-178 15-256 153-287 312L319 0H38l288-1484h281c-42 207-76 422-128 618h4c93-140 195-226 394-236 239-12 300 182 255 416L999 0H719" id="D"/><path fill="#00624f" d="M934-19C661 27 215 78 277-280c36-207 80-407 119-612H229l37-190h181l143-282h176l-55 282h385l-37 190H674c-37 191-72 381-110 573-40 205 250 136 406 114" id="E"/><path fill="#00624f" d="M966-761c11-69 20-163-53-162-34 0-66 27-96 81s-55 134-76 241L624 0H396c48-253 104-503 145-761 11-69 20-166-53-162-50 3-75 49-98 93-36 67-60 156-78 248L199 0H-30c67-361 144-713 204-1082h209c-6 55-18 122-28 175h2c54-95 112-192 254-195 127-2 153 72 158 196 61-99 122-196 274-196 124 0 168 64 168 192 0 67-10 125-22 189L1049 0H821c48-253 104-503 145-761" id="F"/><path fill="#00624f" d="M726-190h353L1042 0H13l37-190h395l215-1104H370l36-190h571" id="G"/><g id="d"><use transform="matrix(0.006510416666666667,0,0,0.006510416666666667,0,0)" xlink:href="#D"/><use transform="matrix(0.006510416666666667,0,0,0.006510416666666667,8.001302083333334,0)" xlink:href="#E"/><use transform="matrix(0.006510416666666667,0,0,0.006510416666666667,16.002604166666668,0)" xlink:href="#F"/><use transform="matrix(0.006510416666666667,0,0,0.006510416666666667,24.00390625,0)" xlink:href="#G"/></g><path fill="#00624f" d="M356-176c-12 58-30 126-49 176H35c16-68 38-154 54-236l242-1248h281c-38 191-72 384-113 572h2c73-110 181-188 354-191 248-4 322 202 293 457-33 283-138 514-343 624-54 29-114 42-177 42-150-2-235-73-268-196h-4zm483-364c32-163 38-378-131-372-124 4-181 90-228 188-68 142-150 552 86 552 64 0 120-31 167-92s82-154 106-276" id="H"/><path fill="#00624f" d="M725-1102c305 0 463 153 426 468-36 300-163 518-405 612-72 28-154 42-245 42C201 22 46-148 80-460c32-293 164-506 400-600 72-28 153-42 245-42zM432-707c-57 152-149 543 103 535 249-8 288-238 323-464 24-154-11-278-166-273-150 5-217 88-260 202" id="I"/><path fill="#00624f" d="M602-1100c151 0 237 71 272 191 33-194 73-384 109-575h281c-88 463-183 921-266 1388-7 41-11 73-14 96H712c0-58 11-123 19-176h-4C649-66 554 15 373 20-5 30 48-510 165-765c81-177 195-335 437-335zM390-539c-32 158-38 367 129 367 124 0 184-94 231-194 66-139 154-543-85-543-131 0-184 97-228 201-19 46-34 103-47 169" id="J"/><path fill="#00624f" d="M-3 212c85 14 186 10 239-31 61-47 106-118 147-192L143-1082h297c45 283 102 554 124 861 131-302 288-578 437-861h294L626 57c-92 150-176 284-344 346-89 32-223 24-324 9" id="K"/><g id="e"><use transform="matrix(0.006510416666666667,0,0,0.006510416666666667,0,0)" xlink:href="#H"/><use transform="matrix(0.006510416666666667,0,0,0.006510416666666667,8.001302083333334,0)" xlink:href="#I"/><use transform="matrix(0.006510416666666667,0,0,0.006510416666666667,16.002604166666668,0)" xlink:href="#J"/><use transform="matrix(0.006510416666666667,0,0,0.006510416666666667,24.00390625,0)" xlink:href="#K"/></g><path fill="#00624f" d="M362 20C180 20 93-74 92-253c0-45 5-92 15-142l133-687h281L403-475c-25 128-21 296 117 285 166-13 238-158 268-312l112-580h281C1114-721 1035-372 979 0H711c6-69 19-150 30-215h-5C648-80 546 20 362 20" id="L"/><path fill="#00624f" d="M877-1103c184-4 269 96 271 273 0 43-5 91-15 143L999 0H719l120-619c29-130 29-284-118-273-178 13-258 152-289 312L319 0H38c66-362 146-710 202-1082h268c-5 70-17 151-28 215h4c91-138 196-231 393-236" id="M"/><g id="f"><use transform="matrix(0.006510416666666667,0,0,0.006510416666666667,0,0)" xlink:href="#H"/><use transform="matrix(0.006510416666666667,0,0,0.006510416666666667,8.001302083333334,0)" xlink:href="#L"/><use transform="matrix(0.006510416666666667,0,0,0.006510416666666667,16.002604166666668,0)" xlink:href="#E"/><use transform="matrix(0.006510416666666667,0,0,0.006510416666666667,24.00390625,0)" xlink:href="#E"/><use transform="matrix(0.006510416666666667,0,0,0.006510416666666667,32.005208333333336,0)" xlink:href="#I"/><use transform="matrix(0.006510416666666667,0,0,0.006510416666666667,40.00651041666667,0)" xlink:href="#M"/></g><path fill="#333" d="M67-125c0 53 21 87 73 88 37 1 54-22 65-47l45 17C233-25 199 4 140 4 58 4 20-42 15-125 8-235 124-281 211-232c18 10 29 29 36 50l-46 12c-8-25-30-41-62-41-52 0-71 34-72 86" id="N"/><path fill="#333" d="M114-157C55-157 80-60 75 0H25v-261h50l-1 109c12-26 28-41 61-42 86-1 58 113 63 194h-50c-7-57 23-157-34-157" id="O"/><path fill="#333" d="M190-63c-7 42-38 67-86 67-59 0-84-38-90-98-12-110 154-137 174-36l-49 2c-2-19-15-32-35-32-30 0-35 28-38 64-6 74 65 87 74 30" id="P"/><g id="g"><use transform="matrix(0.03703703703703704,0,0,0.03703703703703704,0,0)" xlink:href="#N"/><use transform="matrix(0.03703703703703704,0,0,0.03703703703703704,9.592592592592593,0)" xlink:href="#O"/><use transform="matrix(0.03703703703703704,0,0,0.03703703703703704,17.703703703703706,0)" xlink:href="#v"/><use transform="matrix(0.03703703703703704,0,0,0.03703703703703704,25.111111111111114,0)" xlink:href="#w"/><use transform="matrix(0.03703703703703704,0,0,0.03703703703703704,30.2962962962963,0)" xlink:href="#v"/><use transform="matrix(0.03703703703703704,0,0,0.03703703703703704,37.70370370370371,0)" xlink:href="#P"/><use transform="matrix(0.03703703703703704,0,0,0.03703703703703704,45.111111111111114,0)" xlink:href="#u"/><use transform="matrix(0.03703703703703704,0,0,0.03703703703703704,49.51851851851852,0)" xlink:href="#B"/><use transform="matrix(0.03703703703703704,0,0,0.03703703703703704,56.925925925925924,0)" xlink:href="#w"/></g><g id="h"><use transform="matrix(0.03703703703703704,0,0,0.03703703703703704,0,0)" xlink:href="#x"/><use transform="matrix(0.03703703703703704,0,0,0.03703703703703704,7.1111111111111125,0)" xlink:href="#z"/><use transform="matrix(0.03703703703703704,0,0,0.03703703703703704,15.222222222222225,0)" xlink:href="#A"/><use transform="matrix(0.03703703703703704,0,0,0.03703703703703704,22.629629629629633,0)" xlink:href="#B"/><use transform="matrix(0.03703703703703704,0,0,0.03703703703703704,30.03703703703704,0)" xlink:href="#C"/></g><path fill="#00624f" d="M299-409l47-244h580l-47 244H299" id="Q"/><use transform="matrix(0.009765625,0,0,0.009765625,0,0)" xlink:href="#Q" id="i"/><path fill="#333" d="M24 0v-248h195v40H76v63h132v40H76v65h150V0H24" id="R"/><path fill="#333" d="M88-194c31-1 46 15 58 34l-1-101h50l1 261h-48c-2-10 0-23-3-31C134-8 116 4 84 4 32 4 16-41 15-95c0-56 19-97 73-99zm17 164c33 0 40-30 41-66 1-37-9-64-41-64s-38 30-39 65c0 43 13 65 39 65" id="S"/><g id="j"><use transform="matrix(0.03703703703703704,0,0,0.03703703703703704,0,0)" xlink:href="#R"/><use transform="matrix(0.03703703703703704,0,0,0.03703703703703704,8.88888888888889,0)" xlink:href="#C"/><use transform="matrix(0.03703703703703704,0,0,0.03703703703703704,17,0)" xlink:href="#S"/></g><path fill="#00624f" d="M780-1370c264 0 398 147 388 418-15 429-147 809-462 935-65 26-133 37-204 37-310 0-420-226-381-552 36-290 117-540 270-692 95-96 217-146 389-146zM389-393c-2 128 44 192 158 192 158 0 203-120 251-249 40-108 93-391 93-513 0-117-40-189-155-187-162 3-210 115-255 248-44 130-89 339-92 509zm122-162l48-249h215l-48 249H511" id="T"/><use transform="matrix(0.008680555555555556,0,0,0.008680555555555556,0,0)" xlink:href="#T" id="k"/><path fill="#00624f" d="M726-569v408H500v-408H101v-224h399v-408h226v408h402v224H726" id="U"/><use transform="matrix(0.011935763888888888,0,0,0.011935763888888888,0,0)" xlink:href="#U" id="l"/><path fill="#00624f" d="M726-190h353L1042 0H13l37-190h395l136-702H291l37-190h571zm-70-1087l40-207h281l-40 207H656" id="V"/><path fill="#00624f" d="M669 0H333L136-1082h297c38 290 89 566 111 872 141-303 307-581 460-872h294" id="W"/><g id="m"><use transform="matrix(0.006510416666666667,0,0,0.006510416666666667,0,0)" xlink:href="#J"/><use transform="matrix(0.006510416666666667,0,0,0.006510416666666667,8.001302083333334,0)" xlink:href="#V"/><use transform="matrix(0.006510416666666667,0,0,0.006510416666666667,16.002604166666668,0)" xlink:href="#W"/></g><path fill="#ba2b65" d="M197 0v-115H63V0H30v-248h33v105h134v-105h34V0h-34" id="X"/><path fill="#ba2b65" d="M127-220V0H93v-220H8v-28h204v28h-85" id="Y"/><path fill="#ba2b65" d="M240 0l2-218c-23 76-54 145-80 218h-23L58-218 59 0H30v-248h44l77 211c21-75 51-140 76-211h43V0h-30" id="Z"/><path fill="#ba2b65" d="M30 0v-248h33v221h125V0H30" id="aa"/><path fill="#ba2b65" d="M59-47c-2 24 18 29 38 22v24C64 9 27 4 27-40v-127H5v-23h24l9-43h21v43h35v23H59v120" id="ab"/><path fill="#ba2b65" d="M210-169c-67 3-38 105-44 169h-31v-121c0-29-5-50-35-48C34-165 62-65 56 0H25l-1-190h30c1 10-1 24 2 32 10-44 99-50 107 0 11-21 27-35 58-36 85-2 47 119 55 194h-31v-121c0-29-5-49-35-48" id="ac"/><path fill="#ba2b65" d="M24 0v-261h32V0H24" id="ad"/><path fill="#ba2b65" d="M30 0v-248h187v28H63v79h144v27H63v87h162V0H30" id="ae"/><path fill="#ba2b65" d="M100-194c63 0 86 42 84 106H49c0 40 14 67 53 68 26 1 43-12 49-29l28 8c-11 28-37 45-77 45C44 4 14-33 15-96c1-61 26-98 85-98zm52 81c6-60-76-77-97-28-3 7-6 17-6 28h103" id="af"/><path fill="#ba2b65" d="M117-194c89-4 53 116 60 194h-32v-121c0-31-8-49-39-48C34-167 62-67 57 0H25l-1-190h30c1 10-1 24 2 32 11-22 29-35 61-36" id="ag"/><g id="n"><use transform="matrix(0.05555555555555555,0,0,0.05555555555555555,0,0)" xlink:href="#X"/><use transform="matrix(0.05555555555555555,0,0,0.05555555555555555,14.388888888888888,0)" xlink:href="#Y"/><use transform="matrix(0.05555555555555555,0,0,0.05555555555555555,26.555555555555554,0)" xlink:href="#Z"/><use transform="matrix(0.05555555555555555,0,0,0.05555555555555555,43.166666666666664,0)" xlink:href="#aa"/><use transform="matrix(0.05555555555555555,0,0,0.05555555555555555,54.27777777777777,0)" xlink:href="#X"/><use transform="matrix(0.05555555555555555,0,0,0.05555555555555555,68.66666666666666,0)" xlink:href="#ab"/><use transform="matrix(0.05555555555555555,0,0,0.05555555555555555,74.22222222222221,0)" xlink:href="#ac"/><use transform="matrix(0.05555555555555555,0,0,0.05555555555555555,90.83333333333333,0)" xlink:href="#ad"/><use transform="matrix(0.05555555555555555,0,0,0.05555555555555555,95.22222222222221,0)" xlink:href="#ae"/><use transform="matrix(0.05555555555555555,0,0,0.05555555555555555,108.55555555555554,0)" xlink:href="#ad"/><use transform="matrix(0.05555555555555555,0,0,0.05555555555555555,112.94444444444443,0)" xlink:href="#af"/><use transform="matrix(0.05555555555555555,0,0,0.05555555555555555,124.05555555555554,0)" xlink:href="#ac"/><use transform="matrix(0.05555555555555555,0,0,0.05555555555555555,140.66666666666666,0)" xlink:href="#af"/><use transform="matrix(0.05555555555555555,0,0,0.05555555555555555,151.77777777777777,0)" xlink:href="#ag"/><use transform="matrix(0.05555555555555555,0,0,0.05555555555555555,162.88888888888889,0)" xlink:href="#ab"/></g><path fill="#00624f" d="M197 0v-115H63V0H30v-248h33v105h134v-105h34V0h-34" id="ah"/><path fill="#00624f" d="M127-220V0H93v-220H8v-28h204v28h-85" id="ai"/><path fill="#00624f" d="M240 0l2-218c-23 76-54 145-80 218h-23L58-218 59 0H30v-248h44l77 211c21-75 51-140 76-211h43V0h-30" id="aj"/><path fill="#00624f" d="M30 0v-248h33v221h125V0H30" id="ak"/><path fill="#00624f" d="M160-131c35 5 61 23 61 61C221 17 115-2 30 0v-248c76 3 177-17 177 60 0 33-19 50-47 57zm-97-11c50-1 110 9 110-42 0-47-63-36-110-37v79zm0 115c55-2 124 14 124-45 0-56-70-42-124-44v89" id="al"/><path fill="#00624f" d="M100-194c62-1 85 37 85 99 1 63-27 99-86 99S16-35 15-95c0-66 28-99 85-99zM99-20c44 1 53-31 53-75 0-43-8-75-51-75s-53 32-53 75 10 74 51 75" id="am"/><path fill="#00624f" d="M85-194c31 0 48 13 60 33l-1-100h32l1 261h-30c-2-10 0-23-3-31C134-8 116 4 85 4 32 4 16-35 15-94c0-66 23-100 70-100zm9 24c-40 0-46 34-46 75 0 40 6 74 45 74 42 0 51-32 51-76 0-42-9-74-50-73" id="an"/><path fill="#00624f" d="M179-190L93 31C79 59 56 82 12 73V49c39 6 53-20 64-50L1-190h34L92-34l54-156h33" id="ao"/><path fill="#00624f" d="M30 0v-248h187v28H63v79h144v27H63v87h162V0H30" id="ap"/><path fill="#00624f" d="M24 0v-261h32V0H24" id="aq"/><path fill="#00624f" d="M100-194c63 0 86 42 84 106H49c0 40 14 67 53 68 26 1 43-12 49-29l28 8c-11 28-37 45-77 45C44 4 14-33 15-96c1-61 26-98 85-98zm52 81c6-60-76-77-97-28-3 7-6 17-6 28h103" id="ar"/><path fill="#00624f" d="M210-169c-67 3-38 105-44 169h-31v-121c0-29-5-50-35-48C34-165 62-65 56 0H25l-1-190h30c1 10-1 24 2 32 10-44 99-50 107 0 11-21 27-35 58-36 85-2 47 119 55 194h-31v-121c0-29-5-49-35-48" id="as"/><path fill="#00624f" d="M117-194c89-4 53 116 60 194h-32v-121c0-31-8-49-39-48C34-167 62-67 57 0H25l-1-190h30c1 10-1 24 2 32 11-22 29-35 61-36" id="at"/><path fill="#00624f" d="M59-47c-2 24 18 29 38 22v24C64 9 27 4 27-40v-127H5v-23h24l9-43h21v43h35v23H59v120" id="au"/><g id="o"><use transform="matrix(0.05555555555555555,0,0,0.05555555555555555,0,0)" xlink:href="#ah"/><use transform="matrix(0.05555555555555555,0,0,0.05555555555555555,14.388888888888888,0)" xlink:href="#ai"/><use transform="matrix(0.05555555555555555,0,0,0.05555555555555555,26.555555555555554,0)" xlink:href="#aj"/><use transform="matrix(0.05555555555555555,0,0,0.05555555555555555,43.166666666666664,0)" xlink:href="#ak"/><use transform="matrix(0.05555555555555555,0,0,0.05555555555555555,54.27777777777777,0)" xlink:href="#al"/><use transform="matrix(0.05555555555555555,0,0,0.05555555555555555,67.6111111111111,0)" xlink:href="#am"/><use transform="matrix(0.05555555555555555,0,0,0.05555555555555555,78.72222222222221,0)" xlink:href="#an"/><use transform="matrix(0.05555555555555555,0,0,0.05555555555555555,89.83333333333333,0)" xlink:href="#ao"/><use transform="matrix(0.05555555555555555,0,0,0.05555555555555555,99.83333333333333,0)" xlink:href="#ap"/><use transform="matrix(0.05555555555555555,0,0,0.05555555555555555,113.16666666666666,0)" xlink:href="#aq"/><use transform="matrix(0.05555555555555555,0,0,0.05555555555555555,117.55555555555554,0)" xlink:href="#ar"/><use transform="matrix(0.05555555555555555,0,0,0.05555555555555555,128.66666666666666,0)" xlink:href="#as"/><use transform="matrix(0.05555555555555555,0,0,0.05555555555555555,145.27777777777777,0)" xlink:href="#ar"/><use transform="matrix(0.05555555555555555,0,0,0.05555555555555555,156.38888888888889,0)" xlink:href="#at"/><use transform="matrix(0.05555555555555555,0,0,0.05555555555555555,167.5,0)" xlink:href="#au"/></g><path fill="#834187" d="M197 0v-115H63V0H30v-248h33v105h134v-105h34V0h-34" id="av"/><path fill="#834187" d="M127-220V0H93v-220H8v-28h204v28h-85" id="aw"/><path fill="#834187" d="M240 0l2-218c-23 76-54 145-80 218h-23L58-218 59 0H30v-248h44l77 211c21-75 51-140 76-211h43V0h-30" id="ax"/><path fill="#834187" d="M30 0v-248h33v221h125V0H30" id="ay"/><path fill="#834187" d="M30-248c118-7 216 8 213 122C240-48 200 0 122 0H30v-248zM63-27c89 8 146-16 146-99s-60-101-146-95v194" id="az"/><path fill="#834187" d="M24-231v-30h32v30H24zM24 0v-190h32V0H24" id="aA"/><path fill="#834187" d="M108 0H70L1-190h34L89-25l56-165h34" id="aB"/><path fill="#834187" d="M30 0v-248h187v28H63v79h144v27H63v87h162V0H30" id="aC"/><path fill="#834187" d="M24 0v-261h32V0H24" id="aD"/><path fill="#834187" d="M100-194c63 0 86 42 84 106H49c0 40 14 67 53 68 26 1 43-12 49-29l28 8c-11 28-37 45-77 45C44 4 14-33 15-96c1-61 26-98 85-98zm52 81c6-60-76-77-97-28-3 7-6 17-6 28h103" id="aE"/><path fill="#834187" d="M210-169c-67 3-38 105-44 169h-31v-121c0-29-5-50-35-48C34-165 62-65 56 0H25l-1-190h30c1 10-1 24 2 32 10-44 99-50 107 0 11-21 27-35 58-36 85-2 47 119 55 194h-31v-121c0-29-5-49-35-48" id="aF"/><path fill="#834187" d="M117-194c89-4 53 116 60 194h-32v-121c0-31-8-49-39-48C34-167 62-67 57 0H25l-1-190h30c1 10-1 24 2 32 11-22 29-35 61-36" id="aG"/><path fill="#834187" d="M59-47c-2 24 18 29 38 22v24C64 9 27 4 27-40v-127H5v-23h24l9-43h21v43h35v23H59v120" id="aH"/><g id="p"><use transform="matrix(0.05555555555555555,0,0,0.05555555555555555,0,0)" xlink:href="#av"/><use transform="matrix(0.05555555555555555,0,0,0.05555555555555555,14.388888888888888,0)" xlink:href="#aw"/><use transform="matrix(0.05555555555555555,0,0,0.05555555555555555,26.555555555555554,0)" xlink:href="#ax"/><use transform="matrix(0.05555555555555555,0,0,0.05555555555555555,43.166666666666664,0)" xlink:href="#ay"/><use transform="matrix(0.05555555555555555,0,0,0.05555555555555555,54.27777777777777,0)" xlink:href="#az"/><use transform="matrix(0.05555555555555555,0,0,0.05555555555555555,68.66666666666666,0)" xlink:href="#aA"/><use transform="matrix(0.05555555555555555,0,0,0.05555555555555555,73.05555555555554,0)" xlink:href="#aB"/><use transform="matrix(0.05555555555555555,0,0,0.05555555555555555,83.05555555555554,0)" xlink:href="#aC"/><use transform="matrix(0.05555555555555555,0,0,0.05555555555555555,96.38888888888887,0)" xlink:href="#aD"/><use transform="matrix(0.05555555555555555,0,0,0.05555555555555555,100.77777777777776,0)" xlink:href="#aE"/><use transform="matrix(0.05555555555555555,0,0,0.05555555555555555,111.88888888888887,0)" xlink:href="#aF"/><use transform="matrix(0.05555555555555555,0,0,0.05555555555555555,128.49999999999997,0)" xlink:href="#aE"/><use transform="matrix(0.05555555555555555,0,0,0.05555555555555555,139.6111111111111,0)" xlink:href="#aG"/><use transform="matrix(0.05555555555555555,0,0,0.05555555555555555,150.7222222222222,0)" xlink:href="#aH"/></g><path fill="#0c7cba" d="M197 0v-115H63V0H30v-248h33v105h134v-105h34V0h-34" id="aI"/><path fill="#0c7cba" d="M127-220V0H93v-220H8v-28h204v28h-85" id="aJ"/><path fill="#0c7cba" d="M240 0l2-218c-23 76-54 145-80 218h-23L58-218 59 0H30v-248h44l77 211c21-75 51-140 76-211h43V0h-30" id="aK"/><path fill="#0c7cba" d="M30 0v-248h33v221h125V0H30" id="aL"/><path fill="#0c7cba" d="M160-131c35 5 61 23 61 61C221 17 115-2 30 0v-248c76 3 177-17 177 60 0 33-19 50-47 57zm-97-11c50-1 110 9 110-42 0-47-63-36-110-37v79zm0 115c55-2 124 14 124-45 0-56-70-42-124-44v89" id="aM"/><path fill="#0c7cba" d="M84 4C-5 8 30-112 23-190h32v120c0 31 7 50 39 49 72-2 45-101 50-169h31l1 190h-30c-1-10 1-25-2-33-11 22-28 36-60 37" id="aN"/><path fill="#0c7cba" d="M59-47c-2 24 18 29 38 22v24C64 9 27 4 27-40v-127H5v-23h24l9-43h21v43h35v23H59v120" id="aO"/><path fill="#0c7cba" d="M100-194c62-1 85 37 85 99 1 63-27 99-86 99S16-35 15-95c0-66 28-99 85-99zM99-20c44 1 53-31 53-75 0-43-8-75-51-75s-53 32-53 75 10 74 51 75" id="aP"/><path fill="#0c7cba" d="M117-194c89-4 53 116 60 194h-32v-121c0-31-8-49-39-48C34-167 62-67 57 0H25l-1-190h30c1 10-1 24 2 32 11-22 29-35 61-36" id="aQ"/><path fill="#0c7cba" d="M30 0v-248h187v28H63v79h144v27H63v87h162V0H30" id="aR"/><path fill="#0c7cba" d="M24 0v-261h32V0H24" id="aS"/><path fill="#0c7cba" d="M100-194c63 0 86 42 84 106H49c0 40 14 67 53 68 26 1 43-12 49-29l28 8c-11 28-37 45-77 45C44 4 14-33 15-96c1-61 26-98 85-98zm52 81c6-60-76-77-97-28-3 7-6 17-6 28h103" id="aT"/><path fill="#0c7cba" d="M210-169c-67 3-38 105-44 169h-31v-121c0-29-5-50-35-48C34-165 62-65 56 0H25l-1-190h30c1 10-1 24 2 32 10-44 99-50 107 0 11-21 27-35 58-36 85-2 47 119 55 194h-31v-121c0-29-5-49-35-48" id="aU"/><g id="q"><use transform="matrix(0.05555555555555555,0,0,0.05555555555555555,0,0)" xlink:href="#aI"/><use transform="matrix(0.05555555555555555,0,0,0.05555555555555555,14.388888888888888,0)" xlink:href="#aJ"/><use transform="matrix(0.05555555555555555,0,0,0.05555555555555555,26.555555555555554,0)" xlink:href="#aK"/><use transform="matrix(0.05555555555555555,0,0,0.05555555555555555,43.166666666666664,0)" xlink:href="#aL"/><use transform="matrix(0.05555555555555555,0,0,0.05555555555555555,54.27777777777777,0)" xlink:href="#aM"/><use transform="matrix(0.05555555555555555,0,0,0.05555555555555555,67.6111111111111,0)" xlink:href="#aN"/><use transform="matrix(0.05555555555555555,0,0,0.05555555555555555,78.72222222222221,0)" xlink:href="#aO"/><use transform="matrix(0.05555555555555555,0,0,0.05555555555555555,84.27777777777777,0)" xlink:href="#aO"/><use transform="matrix(0.05555555555555555,0,0,0.05555555555555555,89.83333333333333,0)" xlink:href="#aP"/><use transform="matrix(0.05555555555555555,0,0,0.05555555555555555,100.94444444444444,0)" xlink:href="#aQ"/><use transform="matrix(0.05555555555555555,0,0,0.05555555555555555,112.05555555555556,0)" xlink:href="#aR"/><use transform="matrix(0.05555555555555555,0,0,0.05555555555555555,125.38888888888889,0)" xlink:href="#aS"/><use transform="matrix(0.05555555555555555,0,0,0.05555555555555555,129.77777777777777,0)" xlink:href="#aT"/><use transform="matrix(0.05555555555555555,0,0,0.05555555555555555,140.88888888888889,0)" xlink:href="#aU"/><use transform="matrix(0.05555555555555555,0,0,0.05555555555555555,157.5,0)" xlink:href="#aT"/><use transform="matrix(0.05555555555555555,0,0,0.05555555555555555,168.61111111111111,0)" xlink:href="#aQ"/><use transform="matrix(0.05555555555555555,0,0,0.05555555555555555,179.72222222222223,0)" xlink:href="#aO"/></g><g id="r"><use transform="matrix(0.05555555555555555,0,0,0.05555555555555555,0,0)" xlink:href="#aI"/><use transform="matrix(0.05555555555555555,0,0,0.05555555555555555,14.388888888888888,0)" xlink:href="#aJ"/><use transform="matrix(0.05555555555555555,0,0,0.05555555555555555,26.555555555555554,0)" xlink:href="#aK"/><use transform="matrix(0.05555555555555555,0,0,0.05555555555555555,43.166666666666664,0)" xlink:href="#aL"/><use transform="matrix(0.05555555555555555,0,0,0.05555555555555555,54.27777777777777,0)" xlink:href="#aM"/><use transform="matrix(0.05555555555555555,0,0,0.05555555555555555,67.6111111111111,0)" xlink:href="#aN"/><use transform="matrix(0.05555555555555555,0,0,0.05555555555555555,78.72222222222221,0)" xlink:href="#aO"/><use transform="matrix(0.05555555555555555,0,0,0.05555555555555555,84.27777777777777,0)" xlink:href="#aO"/><use transform="matrix(0.05555555555555555,0,0,0.05555555555555555,89.83333333333333,0)" xlink:href="#aP"/><use transform="matrix(0.05555555555555555,0,0,0.05555555555555555,100.94444444444444,0)" xlink:href="#aQ"/><use transform="matrix(0.05555555555555555,0,0,0.05555555555555555,112.05555555555556,0)" xlink:href="#aR"/><use transform="matrix(0.05555555555555555,0,0,0.05555555555555555,125.38888888888889,0)" xlink:href="#aS"/><use transform="matrix(0.05555555555555555,0,0,0.05555555555555555,129.77777777777777,0)" xlink:href="#aT"/><use transform="matrix(0.05555555555555555,0,0,0.05555555555555555,140.88888888888889,0)" xlink:href="#aU"/><use transform="matrix(0.05555555555555555,0,0,0.05555555555555555,157.5,0)" xlink:href="#aT"/><use transform="matrix(0.05555555555555555,0,0,0.05555555555555555,168.61111111111111,0)" xlink:href="#aQ"/><use transform="matrix(0.05555555555555555,0,0,0.05555555555555555,179.72222222222223,0)" xlink:href="#aO"/></g><path fill="#ce6925" d="M127-220V0H93v-220H8v-28h204v28h-85" id="aV"/><path fill="#ce6925" d="M100-194c63 0 86 42 84 106H49c0 40 14 67 53 68 26 1 43-12 49-29l28 8c-11 28-37 45-77 45C44 4 14-33 15-96c1-61 26-98 85-98zm52 81c6-60-76-77-97-28-3 7-6 17-6 28h103" id="aW"/><path fill="#ce6925" d="M141 0L90-78 38 0H4l68-98-65-92h35l48 74 47-74h35l-64 92 68 98h-35" id="aX"/><path fill="#ce6925" d="M59-47c-2 24 18 29 38 22v24C64 9 27 4 27-40v-127H5v-23h24l9-43h21v43h35v23H59v120" id="aY"/><g id="s"><use transform="matrix(0.05555555555555555,0,0,0.05555555555555555,0,0)" xlink:href="#aV"/><use transform="matrix(0.05555555555555555,0,0,0.05555555555555555,9.944444444444443,0)" xlink:href="#aW"/><use transform="matrix(0.05555555555555555,0,0,0.05555555555555555,21.055555555555554,0)" xlink:href="#aX"/><use transform="matrix(0.05555555555555555,0,0,0.05555555555555555,31.055555555555554,0)" xlink:href="#aY"/></g></defs></g></svg>